<?xml version="1.0" encoding="UTF-8"?>
<svg version="1.1" xmlns="http://www.w3.org/2000/svg" width="466" height="374">
<path d="M0 0 C153.78 0 307.56 0 466 0 C466 123.42 466 246.84 466 374 C312.22 374 158.44 374 0 374 C0 250.58 0 127.16 0 0 Z " fill="#040F1B" transform="translate(0,0)"/>
<path d="M0 0 C3.04325737 2.31552191 4.709599 3.80935592 5.625 7.5625 C4.72689696 11.06510185 2.9970227 12.09280373 0 14 C-0.99833862 14.19879761 -0.99833862 14.19879761 -2.0168457 14.40161133 C-4.56629732 15.17087218 -5.09378897 16.08491632 -6.48046875 18.32421875 C-7.13740723 19.36328369 -7.13740723 19.36328369 -7.80761719 20.42333984 C-8.49065918 21.54409912 -8.49065918 21.54409912 -9.1875 22.6875 C-10.15456329 24.23591737 -11.12201764 25.78409056 -12.08984375 27.33203125 C-12.57308105 28.11271973 -13.05631836 28.8934082 -13.55419922 29.69775391 C-14.9185584 31.87031504 -16.32294411 34.00760016 -17.75390625 36.13671875 C-18.17583252 36.76940674 -18.59775879 37.40209473 -19.0324707 38.05395508 C-19.83022578 39.24714841 -20.63453752 40.43598993 -21.44604492 41.61987305 C-22.64944769 43.39280698 -22.64944769 43.39280698 -24 46 C-22.65459949 50.03620153 -20.58054491 50.85167306 -17 53 C-16.01 53.33 -15.02 53.66 -14 54 C-13.91621094 53.29617187 -13.83242187 52.59234375 -13.74609375 51.8671875 C-12.82527663 48.32854998 -11.19155089 46.08950124 -9.0625 43.125 C-6.03199627 38.73375131 -3.95253851 35.23896182 -3 30 C-3.639375 29.731875 -4.27875 29.46375 -4.9375 29.1875 C-7 28 -7 28 -8 25 C-7.34 24.01 -6.68 23.02 -6 22 C1.42857143 23 1.42857143 23 5 24 C5.0825 23.46375 5.165 22.9275 5.25 22.375 C6 20 6 20 8 17.375 C10.00626256 13.98943194 10.27773371 12.65352693 10.5 8.875 C10.72671935 5.60235543 10.86444562 4.21897246 12.625 1.375 C15.97003106 -0.56159693 18.20631972 -0.55180804 22 0 C24.85576764 2.30303842 24.98181881 3.85455051 25.4375 7.5 C25 11 25 11 23.3125 13.4375 C20.61589191 15.25953249 19.18873549 15.35430394 16 15 C15.75088867 15.70108887 15.50177734 16.40217773 15.24511719 17.12451172 C13.83593418 20.37889552 12.07567418 23.07719158 10.078125 26.0078125 C9.69565613 26.57394257 9.31318726 27.14007263 8.91912842 27.72335815 C7.29752562 30.12344079 5.66521767 32.51616959 4.03320312 34.90917969 C-1.06460656 42.39891141 -5.84726256 49.93070949 -10 58 C-9.40703125 58.14308594 -8.8140625 58.28617188 -8.203125 58.43359375 C-5.4185979 59.14947394 -2.72039298 60.0725933 0 61 C0.24621094 60.30390625 0.49242187 59.6078125 0.74609375 58.890625 C2.19205635 55.55725327 4.02308898 52.75544782 6.0625 49.75 C6.77535156 48.69296875 7.48820312 47.6359375 8.22265625 46.546875 C10 44 10 44 11 43 C11.33374277 40.58416247 11.33374277 40.58416247 11 38 C9.54166642 36.37485532 9.54166642 36.37485532 8 35 C8 34.01 8 33.02 8 32 C8.66 32 9.32 32 10 32 C10 31.34 10 30.68 10 30 C13.37992169 30.53771481 16.68737889 31.14303932 20 32 C19.95359375 31.32453125 19.9071875 30.6490625 19.859375 29.953125 C19.56594324 22.70116861 19.56594324 22.70116861 21.625 19.375 C24.70545237 17.59158021 26.49010104 17.48813973 30 18 C32.375 19.125 32.375 19.125 34 21 C34.5 23.9375 34.5 23.9375 34 27 C32.3125 29.375 32.3125 29.375 30 31 C27.25 31.25 27.25 31.25 25 31 C24.60929321 32.07435303 24.60929321 32.07435303 24.21069336 33.17041016 C22.94242202 36.13456922 21.42378522 38.59741857 19.62890625 41.2734375 C18.97212891 42.2634375 18.31535156 43.2534375 17.63867188 44.2734375 C16.2593773 46.33394529 14.8791751 48.39384583 13.49804688 50.453125 C10.14351234 55.51285387 7.11236578 60.29741557 5 66 C8.96 66.33 12.92 66.66 17 67 C17.66 65.35 18.32 63.7 19 62 C20.00835032 60.49792374 21.05075542 59.01817924 22.125 57.5625 C24.12886886 54.62283909 24.97733022 53.13853755 25.5625 49.5625 C25.23497283 46.65559342 25.23497283 46.65559342 22 45 C22.33 43.02 22.66 41.04 23 39 C24.8125 38.3125 24.8125 38.3125 27 38 C28.5625 39.4375 28.5625 39.4375 30 41 C30.99 41 31.98 41 33 41 C34.39880951 39.26256895 34.39880951 39.26256895 35.5625 37.0625 C37.80811808 33.09594096 37.80811808 33.09594096 40 32 C40.35766902 29.22014208 40.44409433 26.46375792 40.55859375 23.6640625 C41 21 41 21 42.28125 19.171875 C45.47212274 16.99627995 48.2339532 17.64132888 52 18 C54.48038907 21.7205836 54.46337203 23.59796571 54 28 C52.09432585 30.61147939 50.87409318 31.78782696 47.71484375 32.5546875 C43.42194561 34.84011529 41.6752923 38.70478705 39.25 42.8125 C38.19911025 44.54058265 37.14570749 46.26713948 36.08984375 47.9921875 C35.57147949 48.84264648 35.05311523 49.69310547 34.51904297 50.56933594 C31.75355169 54.99447756 28.70236655 59.20772047 25.64453125 63.43359375 C24.17212542 65.73138623 23.42211479 67.33500662 23 70 C25.12472576 70.05386629 27.24983652 70.09273071 29.375 70.125 C31.15003906 70.15980469 31.15003906 70.15980469 32.9609375 70.1953125 C36.11153817 70.32866229 36.11153817 70.32866229 38 68 C38.09846917 65.88249633 38.09846917 65.88249633 37.75 63.5625 C37.66234375 62.78003906 37.5746875 61.99757812 37.484375 61.19140625 C37.07779114 58.72446565 37.07779114 58.72446565 35 56 C35.375 53.3125 35.375 53.3125 36 51 C37.32 51 38.64 51 40 51 C44.35211446 55.45573624 46.84662695 59.13703645 47.1875 65.5 C47.0946875 67.2325 47.0946875 67.2325 47 69 C46.95875 69.9075 46.9175 70.815 46.875 71.75 C46 74 46 74 43.1875 75.75 C36.94971873 78.19618873 31.21510069 78.23500205 24.53125 78.42578125 C20.51242795 79.07928439 19.35428096 79.7410908 17 83 C15.93046321 85.38555434 15.93046321 85.38555434 15.3125 87.9375 C15.08175781 88.77152344 14.85101563 89.60554688 14.61328125 90.46484375 C12.13757615 100.38822316 12.13757615 100.38822316 15 109.8125 C15.66 110.864375 16.32 111.91625 17 113 C17 113.99 17 114.98 17 116 C16.154375 116.14695312 15.30875 116.29390625 14.4375 116.4453125 C3.333778 118.64082117 -2.17576691 122.59541472 -9.33984375 131.09765625 C-11.70633887 133.80938125 -14.06177904 135.91059843 -17 138 C-18.32 138 -19.64 138 -21 138 C-20.00401622 134.0160649 -18.90023897 130.70148585 -16.875 127.125 C-14.24942779 122.04102685 -14.22433398 117.42959769 -15.47265625 111.91015625 C-16.1372598 109.7272956 -16.1372598 109.7272956 -18 107 C-21.08369887 105.94250443 -21.08369887 105.94250443 -24 106 C-24 106.66 -24 107.32 -24 108 C-27.4352048 110.29013653 -28.985331 110.17842973 -33 110 C-33.32613281 109.30132812 -33.65226563 108.60265625 -33.98828125 107.8828125 C-34.42527344 106.97273438 -34.86226562 106.06265625 -35.3125 105.125 C-35.95638672 103.76761719 -35.95638672 103.76761719 -36.61328125 102.3828125 C-37.9199388 99.73550524 -37.9199388 99.73550524 -41 98 C-41.3359375 95.79296875 -41.3359375 95.79296875 -41.375 93.1875 C-41.70474988 88.08736852 -43.17617777 86.43163533 -47 83 C-47.6875 80.5625 -47.6875 80.5625 -47 78 C-46.01128906 77.1440625 -45.02257812 76.288125 -44.00390625 75.40625 C-40.71346848 72.21553727 -40.31241211 69.80275145 -40.21484375 65.31835938 C-40.22644531 64.53267578 -40.23804688 63.74699219 -40.25 62.9375 C-40.22431559 57.69359914 -40.00272679 53.89649728 -38 49 C-38.26331459 44.83834495 -39.78328505 42.63429125 -42.4375 39.5 C-45.53139426 35.83124855 -47.82458184 32.62677445 -48.15234375 27.71875 C-47.75403352 23.60529161 -47.30327337 21.41591776 -44.8125 18 C-38.74861581 13.68790457 -30.16726262 14.50796824 -23 15 C-19.24496911 15.76706094 -15.6308517 16.77758901 -12 18 C-12 17.01 -12 16.02 -12 15 C-11.34 14.67 -10.68 14.34 -10 14 C-9.64233098 11.22014208 -9.55590567 8.46375792 -9.44140625 5.6640625 C-8.5201593 0.10397026 -5.2490992 -0.83985587 0 0 Z " fill="#71A9E1" transform="translate(233,80)"/>
<path d="M0 0 C0 0.66 0 1.32 0 2 C0.66 2 1.32 2 2 2 C2 2.66 2 3.32 2 4 C4.40144267 3.8042208 4.40144267 3.8042208 7 3 C8.0260734 1.68662604 9.02727325 0.35335895 10 -1 C12.125 -1.6875 12.125 -1.6875 14 -2 C14.33 -2.33 14.66 -2.66 15 -3 C21.85979701 -3.54442833 28.08317029 -2.80367624 34 1 C34.71875 3.078125 34.71875 3.078125 35 5 C35.495 5.495 35.495 5.495 36 6 C36.2101919 7.76619587 36.36843437 9.53871338 36.5 11.3125 C36.78214003 15.26579349 36.78214003 15.26579349 37.60546875 19.125 C38.32980538 22.56739192 36.61727405 25.04429224 35 28 C32.8125 28.9375 32.8125 28.9375 31 29 C31 29.66 31 30.32 31 31 C30.01 31 29.02 31 28 31 C28 31.66 28 32.32 28 33 C24.9166866 33.02911321 21.83340875 33.04683682 18.75 33.0625 C17.87730469 33.07087891 17.00460937 33.07925781 16.10546875 33.08789062 C15.26113281 33.09111328 14.41679687 33.09433594 13.546875 33.09765625 C12.77182617 33.10289307 11.99677734 33.10812988 11.19824219 33.11352539 C9 33 9 33 6.859375 32.43383789 C4.0659549 31.78206432 2.68392676 32.972004 0.25 34.375 C-4.38131211 36.81361124 -7.73722809 38.09073745 -13 38 C-15.125 36.1875 -15.125 36.1875 -17 34 C-18.03125 33.773125 -19.0625 33.54625 -20.125 33.3125 C-23 32 -23 32 -23.86328125 30.37109375 C-26.59152288 20.29330324 -24.36486342 8.96457014 -22 -1 C-13.88068841 -4.16851184 -7.87219359 -2.99893089 0 0 Z " fill="#433C2D" transform="translate(260,237)"/>
<path d="M0 0 C2.71416515 1.47340394 3.08894967 2.32649284 4.1875 5.1875 C4.45625637 7.38742327 4.63467407 9.59922363 4.75 11.8125 C5.0905096 17.62548525 5.56063294 23.39898293 6.1875 29.1875 C8.1675 29.5175 10.1475 29.8475 12.1875 30.1875 C11.87603528 28.29149631 11.56328283 26.39570413 11.25 24.5 C11.07597656 23.44425781 10.90195313 22.38851563 10.72265625 21.30078125 C10.38625007 19.34373218 10.01832406 17.39157831 9.60546875 15.44921875 C8.91293615 11.70177598 9.83736289 9.02483857 11.28515625 5.5625 C13.1875 3.1875 13.1875 3.1875 16.48046875 2.59375 C31.47691819 2.95474778 31.47691819 2.95474778 36.1875 6.1875 C38.35262772 12.18536445 38.42701177 18.34214689 37.8125 24.625 C37.74289063 25.38683594 37.67328125 26.14867187 37.6015625 26.93359375 C37.1463895 29.41128073 36.57396835 31.08096261 35.1875 33.1875 C31.83168186 35.36979636 29.05603 35.4215052 25.109375 35.3828125 C23.36914062 35.37314453 23.36914062 35.37314453 21.59375 35.36328125 C20.3871875 35.34652344 19.180625 35.32976562 17.9375 35.3125 C16.10445312 35.29896484 16.10445312 35.29896484 14.234375 35.28515625 C11.21855218 35.26159513 8.20312508 35.22869706 5.1875 35.1875 C5.1875 34.8575 5.1875 34.5275 5.1875 34.1875 C4.27254761 34.14991577 4.27254761 34.14991577 3.33911133 34.11157227 C0.55922102 33.9950942 -2.2203734 33.87260368 -5 33.75 C-5.95970703 33.71068359 -6.91941406 33.67136719 -7.90820312 33.63085938 C-8.83955078 33.58896484 -9.77089844 33.54707031 -10.73046875 33.50390625 C-11.58406982 33.46724854 -12.4376709 33.43059082 -13.31713867 33.39282227 C-15.89462816 33.18074237 -18.30655159 32.82964759 -20.8125 32.1875 C-23.41982758 28.72545245 -24.08518435 24.36696645 -23.6875 20.125 C-22.98290484 16.20377476 -21.51474775 12.78840871 -19.8125 9.1875 C-19.35875 7.95 -18.905 6.7125 -18.4375 5.4375 C-16.63956643 1.84163287 -15.40038841 0.8434485 -11.8125 -0.8125 C-8.06859579 -2.6844521 -3.86759798 -1.11730608 0 0 Z " fill="#272722" transform="translate(168.8125,236.8125)"/>
<path d="M0 0 C3.58535386 3.05809594 4.96272031 6.22215906 5.4375 10.875 C5.11615008 13.89568924 4.33237211 16.04264633 3.125 18.8125 C2.96 19.6375 2.795 20.4625 2.625 21.3125 C1.42392607 27.31786964 -1.37736833 32.60870735 -6 36.6875 C-7.875 37.8125 -7.875 37.8125 -9.875 37.8125 C-10.535 36.8225 -11.195 35.8325 -11.875 34.8125 C-13.195 34.1525 -14.515 33.4925 -15.875 32.8125 C-16.205 26.2125 -16.535 19.6125 -16.875 12.8125 C-18.195 12.4825 -19.515 12.1525 -20.875 11.8125 C-21.205 8.5125 -21.535 5.2125 -21.875 1.8125 C-14.26072677 -2.16768828 -8.16107576 -3.37087912 0 0 Z " fill="#756F63" transform="translate(319.875,235.1875)"/>
<path d="M0 0 C2.9375 2.375 2.9375 2.375 5 5 C5.66 5.66 6.32 6.32 7 7 C7.71302773 12.53840145 7.7162716 17.48787107 5.3125 22.5625 C2.32620649 25.71021478 0.33534689 27.74051701 -4.109375 28.234375 C-7.68750689 28.16233208 -10.08964518 27.73385745 -12.9140625 25.45703125 C-16.47074833 21.23452035 -17.75722902 17.67523053 -17.3203125 12.17578125 C-16.09090909 3.8248337 -16.09090909 3.8248337 -12.4375 1.0625 C-8.16660875 -0.25759366 -4.42196407 -0.89744658 0 0 Z " fill="#F2F0EE" transform="translate(286,241)"/>
<path d="M0 0 C0.59570773 5.71879424 -0.54615314 8.21438945 -3.7578125 12.88671875 C-5.8054763 16.37032288 -6.35502133 20.05513048 -7 24 C-7.309375 25.5159375 -7.309375 25.5159375 -7.625 27.0625 C-7.74875 27.701875 -7.8725 28.34125 -8 29 C-11.3 29 -14.6 29 -18 29 C-19.80397674 23.70833489 -21.1362991 19.35873135 -21.0625 13.75 C-21.05347656 12.85796875 -21.04445312 11.9659375 -21.03515625 11.046875 C-21.02355469 10.37140625 -21.01195312 9.6959375 -21 9 C-21.99 8.67 -22.98 8.34 -24 8 C-24 5.36 -24 2.72 -24 0 C-15.30172508 -4.34913746 -8.83896256 -3.43737433 0 0 Z " fill="#514B3D" transform="translate(233,239)"/>
<path d="M0 0 C3.58875 -0.0928125 3.58875 -0.0928125 7.25 -0.1875 C8.37003418 -0.22846802 8.37003418 -0.22846802 9.51269531 -0.27026367 C12.58718828 -0.30871551 14.73096098 -0.14133063 17.46875 1.296875 C19 3 19 3 19.25 6.4375 C19.1675 7.613125 19.085 8.78875 19 10 C19 11.32 19 12.64 19 14 C19.66 14.33 20.32 14.66 21 15 C21.50542602 19.29612117 21.45714436 21.34891561 18.9375 24.9375 C13.82778557 28.74181293 5.91667784 27.25950341 0 27 C0 18.09 0 9.18 0 0 Z " fill="#F1EFEC" transform="translate(240,241)"/>
<path d="M0 0 C0 3 0 3 -1 5 C0.299375 5.12375 1.59875 5.2475 2.9375 5.375 C5.15234375 5.5859375 5.15234375 5.5859375 7 6 C7.495 6.99 7.495 6.99 8 8 C6.1128125 7.9071875 6.1128125 7.9071875 4.1875 7.8125 C1.66886049 7.83478885 0.27004394 7.86497803 -2 9 C-3.62651522 12.25303044 -3.11453156 15.39225602 -3 19 C-3.33 19.66 -3.66 20.32 -4 21 C-7.37705625 20.46274105 -10.696686 19.88935377 -14 19 C-14 19.66 -14 20.32 -14 21 C-14.66 21 -15.32 21 -16 21 C-14.24545615 24.18234105 -14.24545615 24.18234105 -12 27 C-11.49571777 31.35790167 -12.58170046 33.37328909 -15.1875 36.8125 C-18.35110587 41.10137219 -21.22145793 45.4532948 -24 50 C-27.71888239 49.49287967 -30.73454239 48.88391785 -34 47 C-33.36167008 42.85085549 -31.09652723 39.65067422 -28.875 36.1875 C-28.44413086 35.51187012 -28.01326172 34.83624023 -27.56933594 34.14013672 C-26.59827846 32.6207928 -25.62481613 31.10298418 -24.64941406 29.58642578 C-22.81267874 26.70626385 -21.01248433 23.80463478 -19.2109375 20.90234375 C-17.89156399 18.80930364 -16.57125581 16.7168524 -15.25 14.625 C-14.62464355 13.60817139 -13.99928711 12.59134277 -13.35498047 11.54370117 C-12.74799316 10.59342041 -12.14100586 9.64313965 -11.515625 8.6640625 C-10.98227539 7.81279785 -10.44892578 6.9615332 -9.89941406 6.08447266 C-7.5087333 3.46086952 -5.36701816 2.96596639 -2 2 C-1.34 1.34 -0.68 0.68 0 0 Z " fill="#0D1B2A" transform="translate(257,91)"/>
<path d="M0 0 C2.20770805 -0.08165496 4.41630425 -0.13948488 6.625 -0.1875 C7.85476562 -0.22230469 9.08453125 -0.25710937 10.3515625 -0.29296875 C14.42673146 0.03426645 18.02150997 1.02150997 21 4 C21.203125 5.9609375 21.203125 5.9609375 21.25 8.375 C21.27578125 9.16648438 21.3015625 9.95796875 21.328125 10.7734375 C20.92340425 13.51975685 19.92759923 14.10283655 18 16 C17.53872976 19.86494057 17.53872976 19.86494057 19.4375 21.5 C19.953125 21.995 20.46875 22.49 21 23 C21.6875 25.1875 21.6875 25.1875 22 27 C19.36 27 16.72 27 14 27 C13.01 24.03 12.02 21.06 11 18 C9.68 18 8.36 18 7 18 C7 20.97 7 23.94 7 27 C5.00045254 27.04254356 2.99958364 27.04080783 1 27 C0 26 0 26 -0.11352539 23.49975586 C-0.10828857 22.41573486 -0.10305176 21.33171387 -0.09765625 20.21484375 C-0.09443359 19.04501953 -0.09121094 17.87519531 -0.08789062 16.66992188 C-0.07951172 15.43822266 -0.07113281 14.20652344 -0.0625 12.9375 C-0.05798828 11.70193359 -0.05347656 10.46636719 -0.04882812 9.19335938 C-0.03699608 6.12885883 -0.02051173 3.06445279 0 0 Z " fill="#EEECE8" transform="translate(182,241)"/>
<path d="M0 0 C1.91635217 -0.05423638 3.83314925 -0.09289963 5.75 -0.125 C7.35101563 -0.15980469 7.35101563 -0.15980469 8.984375 -0.1953125 C11.92470106 -0.00487687 13.52361878 0.47329896 16 2 C16 2.99 16 3.98 16 5 C17.2375 5.144375 18.475 5.28875 19.75 5.4375 C22.56504499 5.78688502 25.2701497 6.20379366 28 7 C27.835 7.804375 27.67 8.60875 27.5 9.4375 C26.21100425 18.00315344 26.21100425 18.00315344 28.9375 26 C31.16283808 28.71213078 32.99059848 29.59943065 36.4375 30.1875 C41.00503928 30.35497644 43.57174486 29.09379122 47 26 C50.09623559 21.16944688 49.6334513 15.52007559 49 10 C47.19196596 6.92634214 46.13960536 5.56980268 43 4 C37.97106679 3.57515888 33.5683532 3.64214028 29 6 C29 4.68 29 3.36 29 2 C33.39479079 -0.46344775 37.04913208 -0.65142999 42 0 C50.71165644 2.71165644 50.71165644 2.71165644 53 5 C53.2101919 6.76619587 53.36843437 8.53871338 53.5 10.3125 C53.78214003 14.26579349 53.78214003 14.26579349 54.60546875 18.125 C55.32980538 21.56739192 53.61727405 24.04429224 52 27 C49.8125 27.9375 49.8125 27.9375 48 28 C48 28.66 48 29.32 48 30 C47.01 30 46.02 30 45 30 C45 30.66 45 31.32 45 32 C42.75106046 32.10823773 40.50062425 32.18569645 38.25 32.25 C36.99703125 32.29640625 35.7440625 32.3428125 34.453125 32.390625 C31 32 31 32 28.546875 30.109375 C27 28 27 28 27 26 C21.63909407 25.46326107 21.63909407 25.46326107 17 27.5 C16.67 27.995 16.34 28.49 16 29 C15.34 28.67 14.68 28.34 14 28 C14.474375 27.649375 14.94875 27.29875 15.4375 26.9375 C17.67873825 24.15836457 17.67117658 21.4855283 18 18 C16.68 17.34 15.36 16.68 14 16 C14.33 15.01 14.66 14.02 15 13 C15.33338596 9.45812169 15.33338596 9.45812169 15 6 C11.39821412 3.59880941 8.49133631 3.56228678 4.3125 3.375 C3.2596582 3.31699219 3.2596582 3.31699219 2.18554688 3.2578125 C0.45745345 3.1637666 -1.27123675 3.0808032 -3 3 C-2.01 2.67 -1.02 2.34 0 2 C0 1.34 0 0.68 0 0 Z " fill="#5B503B" transform="translate(243,238)"/>
<path d="M0 0 C2.97 0 5.94 0 9 0 C15.70387244 17.85649203 15.70387244 17.85649203 16 26 C14.02 26 12.04 26 10 26 C9.34 24.35 8.68 22.7 8 21 C5.36 20.67 2.72 20.34 0 20 C-0.33 22.31 -0.66 24.62 -1 27 C-3.31 27 -5.62 27 -8 27 C-7.84144531 26.47535156 -7.68289062 25.95070313 -7.51953125 25.41015625 C-4.97226559 16.95210839 -2.48765397 8.47572222 0 0 Z " fill="#F0EEEB" transform="translate(158,241)"/>
<path d="M0 0 C0.33 0.45375 0.66 0.9075 1 1.375 C4.0377843 3.84319974 7.19187061 4.18843144 11 5 C11 5.66 11 6.32 11 7 C5.555 6.505 5.555 6.505 0 6 C-0.33 7.32 -0.66 8.64 -1 10 C-0.34 10.37125 0.32 10.7425 1 11.125 C3 13 3 13 3.328125 15.8125 C2.94762401 19.50879537 2.01417337 20.97343329 -0.25 23.875 C-3.40856636 28.10350669 -5.78530743 32.21626405 -8 37 C-13.03985731 36.55530671 -15.37634988 34.28656638 -19 31 C-17.6401076 27.31228936 -15.96509748 24.14756078 -13.84765625 20.83984375 C-13.23599609 19.88142578 -12.62433594 18.92300781 -11.99414062 17.93554688 C-11.03797852 16.45151367 -11.03797852 16.45151367 -10.0625 14.9375 C-9.42892578 13.94427734 -8.79535156 12.95105469 -8.14257812 11.92773438 C-5.53581575 7.85723793 -2.94572265 3.83560529 0 0 Z " fill="#0B1A28" transform="translate(227,97)"/>
<path d="M0 0 C0.33 0.66 0.66 1.32 1 2 C0.67 2.66 0.34 3.32 0 4 C0.66 4.33 1.32 4.66 2 5 C1.505 5.4125 1.01 5.825 0.5 6.25 C-1.43386092 8.12202338 -1.43386092 8.12202338 -1 12 C-0.01 12.66 0.98 13.32 2 14 C2.85252809 19.28567415 0.88257398 23.0179078 -1.875 27.375 C-2.27340088 28.0047876 -2.67180176 28.6345752 -3.08227539 29.28344727 C-5.05511845 32.11727871 -6.44705671 33.81097967 -9.75390625 34.94140625 C-13.210173 34.93637529 -15.90304227 34.54847887 -19 33 C-18.47030292 28.00158574 -16.10722777 24.55386373 -13.4375 20.4375 C-12.99293457 19.73947266 -12.54836914 19.04144531 -12.09033203 18.32226562 C-8.14779156 12.15720769 -4.10671657 6.05683338 0 0 Z " fill="#0B1A28" transform="translate(257,113)"/>
<path d="M0 0 C1.1240625 -0.01675781 2.248125 -0.03351563 3.40625 -0.05078125 C6.73518797 0.34011677 8.07914476 1.06371535 10.5 3.3125 C9.85635703 7.09390243 8.10423131 9.70571719 6 12.875 C4.10283655 15.74018333 2.58804062 18.04837815 1.5 21.3125 C0.51 21.3125 -0.48 21.3125 -1.5 21.3125 C-2.80179824 19.84797697 -4.09753545 18.37463912 -5.30078125 16.828125 C-6.5014818 15.23075908 -6.5014818 15.23075908 -8.1875 13.75 C-10.02437186 11.73818796 -10.75337178 9.92569876 -11.5 7.3125 C-11.375 4.625 -11.375 4.625 -10.5 2.3125 C-7.12515235 0.00928643 -4.00748047 0.0137872 0 0 Z " fill="#0B1927" transform="translate(203.5,101.6875)"/>
<path d="M0 0 C2.65515729 1.4413711 3.28774743 2.32465092 4.1875 5.1875 C4.3125 7.9375 4.3125 7.9375 4.1875 10.1875 C3.5275 9.1975 2.8675 8.2075 2.1875 7.1875 C0.40491411 4.93384036 -0.43712744 4.26493906 -3.29296875 3.67578125 C-4.63294922 3.58876953 -4.63294922 3.58876953 -6 3.5 C-6.90105469 3.43425781 -7.80210937 3.36851562 -8.73046875 3.30078125 C-9.41753906 3.26339844 -10.10460937 3.22601563 -10.8125 3.1875 C-10.92722656 4.17621094 -11.04195312 5.16492188 -11.16015625 6.18359375 C-11.75788994 10.3593256 -12.94399047 14.24820403 -14.25 18.25 C-14.46720703 18.93126953 -14.68441406 19.61253906 -14.90820312 20.31445312 C-16.17762065 24.28281243 -17.48755911 28.2373274 -18.8125 32.1875 C-19.4725 32.1875 -20.1325 32.1875 -20.8125 32.1875 C-23.40246979 26.38596766 -24.46220732 22.38640023 -22.8125 16.1875 C-21.4375 12.625 -21.4375 12.625 -19.8125 9.1875 C-19.35875 7.95 -18.905 6.7125 -18.4375 5.4375 C-16.63956643 1.84163287 -15.40038841 0.8434485 -11.8125 -0.8125 C-8.06859579 -2.6844521 -3.86759798 -1.11730608 0 0 Z " fill="#212322" transform="translate(168.8125,236.8125)"/>
<path d="M0 0 C6.93 0 13.86 0 21 0 C21 1.65 21 3.3 21 5 C18.69 5 16.38 5 14 5 C14 12.26 14 19.52 14 27 C11.69 27 9.38 27 7 27 C7 19.74 7 12.48 7 5 C4.69 5 2.38 5 0 5 C0 3.35 0 1.7 0 0 Z " fill="#F0EFED" transform="translate(210,241)"/>
<path d="M0 0 C14.99644944 0.36099778 14.99644944 0.36099778 19.70703125 3.59375 C21.88450163 9.62580625 21.95309648 15.78391711 21.26953125 22.09375 C21.18832031 22.8671875 21.10710937 23.640625 21.0234375 24.4375 C20.70703125 26.59375 20.70703125 26.59375 19.70703125 29.59375 C12.11703125 29.59375 4.52703125 29.59375 -3.29296875 29.59375 C-4.69309626 24.69330373 -5.64979781 20.55535443 -6.29296875 15.59375 C-6.60234375 14.294375 -6.60234375 14.294375 -6.91796875 12.96875 C-7.51899604 9.16224381 -6.66442657 6.48207618 -5.1953125 2.96875 C-3.29296875 0.59375 -3.29296875 0.59375 0 0 Z M-3.29296875 1.59375 C-3.32183412 5.90623609 -3.3397213 10.21869762 -3.35546875 14.53125 C-3.36384766 15.76294922 -3.37222656 16.99464844 -3.38085938 18.26367188 C-3.38408203 19.43349609 -3.38730469 20.60332031 -3.390625 21.80859375 C-3.39586182 22.89261475 -3.40109863 23.97663574 -3.40649414 25.09350586 C-3.57723772 27.53424948 -3.57723772 27.53424948 -2.29296875 28.59375 C-0.29338511 28.63455783 1.70748379 28.63629356 3.70703125 28.59375 C3.70703125 25.62375 3.70703125 22.65375 3.70703125 19.59375 C5.02703125 19.59375 6.34703125 19.59375 7.70703125 19.59375 C8.69703125 22.56375 9.68703125 25.53375 10.70703125 28.59375 C13.34703125 28.59375 15.98703125 28.59375 18.70703125 28.59375 C18.10519376 26.57329558 17.43397029 24.57263961 16.70703125 22.59375 C16.04703125 22.26375 15.38703125 21.93375 14.70703125 21.59375 C15.08203125 18.65625 15.08203125 18.65625 15.70703125 15.59375 C16.36703125 15.26375 17.02703125 14.93375 17.70703125 14.59375 C17.9359509 11.56056462 18.05646489 8.62038287 17.70703125 5.59375 C15.4664145 3.12134532 13.87773596 2.65065157 10.70703125 1.59375 C8.31212139 1.52404948 5.91535434 1.50926997 3.51953125 1.53125 C2.24722656 1.54027344 0.97492188 1.54929688 -0.3359375 1.55859375 C-1.31175781 1.57019531 -2.28757813 1.58179688 -3.29296875 1.59375 Z " fill="#524834" transform="translate(185.29296875,239.40625)"/>
<path d="M0 0 C0 0.66 0 1.32 0 2 C0.66 2 1.32 2 2 2 C2 2.66 2 3.32 2 4 C4.40144267 3.8042208 4.40144267 3.8042208 7 3 C8.0260734 1.68662604 9.02727325 0.35335895 10 -1 C12.125 -1.6875 12.125 -1.6875 14 -2 C14.33 -2.33 14.66 -2.66 15 -3 C22.30970642 -3.58013543 27.39864924 -2.08706173 34 1 C33.67 1.99 33.34 2.98 33 4 C26.125 3.125 26.125 3.125 25 2 C23.5653041 1.90105545 22.12559603 1.87029265 20.6875 1.875 C19.90761719 1.87242187 19.12773437 1.86984375 18.32421875 1.8671875 C16.08748461 1.99500088 14.14733021 2.38086131 12 3 C11.67 4.65 11.34 6.3 11 8 C6.5214021 8.17563129 2.97415868 8.22085338 -1 6 C-1.33 5.01 -1.66 4.02 -2 3 C-5.16245541 1.9458482 -7.86948218 1.68724328 -11.1875 1.4375 C-12.27417969 1.35371094 -13.36085937 1.26992187 -14.48046875 1.18359375 C-15.31191406 1.12300781 -16.14335937 1.06242188 -17 1 C-17 1.66 -17 2.32 -17 3 C-18.98 3.66 -20.96 4.32 -23 5 C-22.67 3.02 -22.34 1.04 -22 -1 C-13.88068841 -4.16851184 -7.87219359 -2.99893089 0 0 Z " fill="#302E26" transform="translate(260,237)"/>
<path d="M0 0 C6.6 0 13.2 0 20 0 C20 1.65 20 3.3 20 5 C17.69 5 15.38 5 13 5 C13 11.93 13 18.86 13 26 C11.02 26 9.04 26 7 26 C7 19.07 7 12.14 7 5 C4.69 5 2.38 5 0 5 C0 3.35 0 1.7 0 0 Z " fill="#F8F8F6" transform="translate(301,241)"/>
<path d="M0 0 C0.33 0.66 0.66 1.32 1 2 C1.99 2 2.98 2 4 2 C3.67 2.66 3.34 3.32 3 4 C2.34 4 1.68 4 1 4 C-0.61576571 8.84729713 0.9846836 11.48569126 3 16 C3.39672706 18.90933177 3.55135107 20.23799985 1.82421875 22.625 C-0.6988395 24.5267484 -2.43844985 24.33319707 -5.5625 24.25 C-6.53316406 24.23453125 -7.50382812 24.2190625 -8.50390625 24.203125 C-11 24 -11 24 -13 23 C-12.43887029 19.21746244 -11.42956289 16.72325518 -9.27734375 13.57421875 C-8.73916016 12.77822266 -8.20097656 11.98222656 -7.64648438 11.16210938 C-7.08251953 10.34548828 -6.51855469 9.52886719 -5.9375 8.6875 C-5.36966797 7.85154297 -4.80183594 7.01558594 -4.21679688 6.15429688 C-2.81837969 4.09780101 -1.41266246 2.04672458 0 0 Z " fill="#0E1F2F" transform="translate(269,127)"/>
<path d="M0 0 C0 3 0 3 -1 5 C0.299375 5.12375 1.59875 5.2475 2.9375 5.375 C5.15234375 5.5859375 5.15234375 5.5859375 7 6 C7.33 6.66 7.66 7.32 8 8 C6.1128125 7.9071875 6.1128125 7.9071875 4.1875 7.8125 C1.66886049 7.83478885 0.27004394 7.86497803 -2 9 C-3.62651522 12.25303044 -3.11453156 15.39225602 -3 19 C-3.33 19.66 -3.66 20.32 -4 21 C-7.37705625 20.46274105 -10.696686 19.88935377 -14 19 C-14 19.66 -14 20.32 -14 21 C-14.66 21 -15.32 21 -16 21 C-16.33 21.99 -16.66 22.98 -17 24 C-17.66 23.67 -18.32 23.34 -19 23 C-17.430512 18.61712126 -15.20698481 14.74449743 -12.75 10.8125 C-12.38003906 10.18408203 -12.01007813 9.55566406 -11.62890625 8.90820312 C-8.93243405 4.60581147 -6.87455996 3.20517436 -2 2 C-1.34 1.34 -0.68 0.68 0 0 Z " fill="#192939" transform="translate(257,91)"/>
<path d="M0 0 C6.74872562 2.65888187 6.74872562 2.65888187 8.2265625 4.13671875 C8.4367544 5.90291462 8.59499687 7.67543213 8.7265625 9.44921875 C9.00870253 13.40251224 9.00870253 13.40251224 9.83203125 17.26171875 C10.55636788 20.70411067 8.84383655 23.18101099 7.2265625 26.13671875 C5.0390625 27.07421875 5.0390625 27.07421875 3.2265625 27.13671875 C3.3915625 26.39421875 3.5565625 25.65171875 3.7265625 24.88671875 C5.16675767 15.07720224 5.16675767 15.07720224 2.3515625 5.94921875 C-1.76612516 2.43707339 -5.55185577 2.74960148 -10.7734375 3.13671875 C-13.70424424 4.00325289 -13.70424424 4.00325289 -15.7734375 5.13671875 C-15.7734375 3.81671875 -15.7734375 2.49671875 -15.7734375 1.13671875 C-10.5727142 -1.7784849 -5.65821804 -1.76121998 0 0 Z " fill="#544C3B" transform="translate(287.7734375,238.86328125)"/>
<path d="M0 0 C2 2 2 2 2.1953125 4.3828125 C2.17210937 5.28773438 2.14890625 6.19265625 2.125 7.125 C2.10695313 8.03507813 2.08890625 8.94515625 2.0703125 9.8828125 C2.04710937 10.58148438 2.02390625 11.28015625 2 12 C1.34 12 0.68 12 0 12 C-0.33 12.99 -0.66 13.98 -1 15 C-3.33294775 15.04241723 -5.66702567 15.04092937 -8 15 C-9 14 -9 14 -9.09765625 11.05859375 C-9.08605469 9.86363281 -9.07445312 8.66867188 -9.0625 7.4375 C-9.05347656 6.23996094 -9.04445313 5.04242188 -9.03515625 3.80859375 C-9.02355469 2.88175781 -9.01195312 1.95492187 -9 1 C-5.52495122 -0.92236741 -3.85856625 -1.21849461 0 0 Z " fill="#826D49" transform="translate(285,247)"/>
<path d="M0 0 C0.639375 0.53625 1.27875 1.0725 1.9375 1.625 C1.9375 2.615 1.9375 3.605 1.9375 4.625 C-5.3225 4.625 -12.5825 4.625 -20.0625 4.625 C-20.0625 6.935 -20.0625 9.245 -20.0625 11.625 C-20.3925 11.625 -20.7225 11.625 -21.0625 11.625 C-21.3925 8.325 -21.7225 5.025 -22.0625 1.625 C-14.39556202 -2.38271758 -8.14477197 -3.6568364 0 0 Z " fill="#212321" transform="translate(320.0625,235.375)"/>
<path d="M0 0 C0.928125 0.86625 1.85625 1.7325 2.8125 2.625 C2.8125 3.285 2.8125 3.945 2.8125 4.625 C-0.19781744 5.55923645 -1.05400268 5.66949911 -4.1875 4.625 C-6.70621948 4.42645229 -9.16647476 4.30282148 -11.6875 4.25 C-12.36425781 4.21261719 -13.04101562 4.17523438 -13.73828125 4.13671875 C-15.9768937 4.04192613 -15.9768937 4.04192613 -19.1875 4.625 C-21.22622581 7.00851437 -21.22622581 7.00851437 -22.1875 9.625 C-22.9375 8.0625 -22.9375 8.0625 -23.1875 5.625 C-22.1995286 3.03933771 -21.01223094 0.71275522 -19.1875 -1.375 C-13.14634623 -3.65345239 -5.35774091 -3.71761614 0 0 Z " fill="#393528" transform="translate(201.1875,236.375)"/>
<path d="M0 0 C0.33 0 0.66 0 1 0 C1 8.91 1 17.82 1 27 C0.34 26.34 -0.32 25.68 -1 25 C-1 23.68 -1 22.36 -1 21 C-1.66 21 -2.32 21 -3 21 C-4.48846994 18.02306012 -3.95725155 15.4862539 -3.75 12.1875 C-3.68296875 10.96417969 -3.6159375 9.74085938 -3.546875 8.48046875 C-2.98781012 4.9224201 -2.12545088 2.87593225 0 0 Z " fill="#554B37" transform="translate(239,241)"/>
<path d="M0 0 C2.31 0 4.62 0 7 0 C6.37018122 5.79433277 5.30239006 11.61791726 3 17 C2.01 17.66 1.02 18.32 0 19 C0 12.73 0 6.46 0 0 Z " fill="#353227" transform="translate(315,247)"/>
<path d="M0 0 C15.74487472 -0.55353075 15.74487472 -0.55353075 23 3 C24.16243567 8.34720406 23.68974403 12.30515209 22.48046875 17.62109375 C21.90931289 20.4490118 21.84861046 23.12359877 22 26 C21.731875 25.360625 21.46375 24.72125 21.1875 24.0625 C20.11332248 21.66868314 20.11332248 21.66868314 17 21 C17.33 19.02 17.66 17.04 18 15 C18.99 14.67 19.98 14.34 21 14 C20.99397027 12.5619089 20.94373016 11.12396042 20.875 9.6875 C20.85179687 8.88699219 20.82859375 8.08648437 20.8046875 7.26171875 C20.15686645 4.73246258 20.15686645 4.73246258 17.40625 3.25 C13.68128023 1.88303862 10.58097213 1.49910246 6.625 1.3125 C5.37976563 1.24675781 4.13453125 1.18101562 2.8515625 1.11328125 C1.44003906 1.05720703 1.44003906 1.05720703 0 1 C0 0.67 0 0.34 0 0 Z " fill="#615743" transform="translate(182,240)"/>
<path d="M0 0 C0.33 0.99 0.66 1.98 1 3 C-1.59706984 7.38377578 -5.0084721 10.72012105 -10 12 C-10.86625 12.226875 -11.7325 12.45375 -12.625 12.6875 C-15 13 -15 13 -18 12 C-18 10.68 -18 9.36 -18 8 C-18.66 7.67 -19.32 7.34 -20 7 C-15.71 7 -11.42 7 -7 7 C-7 6.34 -7 5.68 -7 5 C-6.01 5 -5.02 5 -4 5 C-4 4.34 -4 3.68 -4 3 C-2.68 2.67 -1.36 2.34 0 2 C0 1.34 0 0.68 0 0 Z " fill="#272823" transform="translate(295,263)"/>
<path d="M0 0 C1.58179615 -0.10867302 3.16577153 -0.18589827 4.75 -0.25 C5.63171875 -0.29640625 6.5134375 -0.3428125 7.421875 -0.390625 C10 0 10 0 12.21875 1.53125 C14.54417852 4.75421233 15.14308459 7.90858247 15.75 11.75 C15.87503906 12.42804688 16.00007813 13.10609375 16.12890625 13.8046875 C16.95614004 18.58628059 17.10872667 23.15079064 17 28 C14.69 28 12.38 28 10 28 C10 27.67 10 27.34 10 27 C11.65 26.67 13.3 26.34 15 26 C13.98339509 19.08441132 12.39312544 12.81193541 9.8046875 6.3125 C9 4 9 4 9 1 C6.03 1 3.06 1 0 1 C0 0.67 0 0.34 0 0 Z " fill="#665C48" transform="translate(158,240)"/>
<path d="M0 0 C1.11412769 3.34238307 0.90543039 4.0510577 -0.14453125 7.2734375 C-0.40943359 8.0984375 -0.67433594 8.9234375 -0.94726562 9.7734375 C-1.23279297 10.63195312 -1.51832031 11.49046875 -1.8125 12.375 C-2.08642578 13.22578125 -2.36035156 14.0765625 -2.64257812 14.953125 C-3.96559433 19.02687274 -5.33413554 23.0506823 -7 27 C-7.33 27 -7.66 27 -8 27 C-8.3690205 14.33029613 -8.3690205 14.33029613 -6 9 C-5.34 9 -4.68 9 -4 9 C-3.67 6.69 -3.34 4.38 -3 2 C-2.01 2 -1.02 2 0 2 C0 1.34 0 0.68 0 0 Z " fill="#423B2B" transform="translate(157,241)"/>
<path d="M0 0 C0.66 0 1.32 0 2 0 C2.10016463 3.5057621 1.76896494 6.58237805 1 10 C0.938125 10.804375 0.87625 11.60875 0.8125 12.4375 C-0.35497165 16.11952597 -2.70469365 18.94718621 -6 21 C-8.07421875 20.9140625 -8.07421875 20.9140625 -10 20 C-10.66 18.68 -11.32 17.36 -12 16 C-9.03 16 -6.06 16 -3 16 C-2.95101562 15.18015625 -2.90203125 14.3603125 -2.8515625 13.515625 C-2.77679688 12.43796875 -2.70203125 11.3603125 -2.625 10.25 C-2.52058594 8.64898437 -2.52058594 8.64898437 -2.4140625 7.015625 C-2.0271777 4.19793568 -1.44313834 2.4169634 0 0 Z " fill="#393528" transform="translate(228,252)"/>
<path d="M0 0 C3.83310811 0.02060811 3.83310811 0.02060811 6.125 2.3125 C6.455 2.9725 6.785 3.6325 7.125 4.3125 C2.49468577 4.44111984 2.49468577 4.44111984 0.25 3.66015625 C-2.71908548 3.17440513 -4.04849569 4.20231758 -6.625 5.6875 C-11.22200338 8.13560831 -14.67898668 9.1269281 -19.875 9.3125 C-20.535 8.9825 -21.195 8.6525 -21.875 8.3125 C-21.875 7.6525 -21.875 6.9925 -21.875 6.3125 C-21.23433594 6.20292969 -20.59367188 6.09335937 -19.93359375 5.98046875 C-13.06867755 4.72207129 -6.47459877 0.52214506 0 0 Z " fill="#222421" transform="translate(266.875,265.6875)"/>
<path d="M0 0 C0.33 0 0.66 0 1 0 C1.54437311 4.24611024 0.81758759 6.59499827 -1.375 10.125 C-4.59527559 15.46171734 -5.30634008 20.88129833 -6 27 C-6.33 27 -6.66 27 -7 27 C-7 19.74 -7 12.48 -7 5 C-4.69 5 -2.38 5 0 5 C0 3.35 0 1.7 0 0 Z " fill="#6D614A" transform="translate(231,241)"/>
<path d="M0 0 C0.40863281 0.47050781 0.81726563 0.94101563 1.23828125 1.42578125 C3.24452701 3.21850196 4.58104266 3.63202549 7.1875 4.1875 C8.445625 4.455625 9.70375 4.72375 11 5 C11 5.66 11 6.32 11 7 C5.555 6.505 5.555 6.505 0 6 C-0.33 7.65 -0.66 9.3 -1 11 C-5.03448276 14 -5.03448276 14 -8 14 C-8 14.99 -8 15.98 -8 17 C-8.66 17 -9.32 17 -10 17 C-8.51364884 12.78345644 -6.38750841 9.37521395 -3.875 5.6875 C-3.15054688 4.61886719 -2.42609375 3.55023438 -1.6796875 2.44921875 C-0.84824219 1.23685547 -0.84824219 1.23685547 0 0 Z " fill="#304559" transform="translate(227,97)"/>
<path d="M0 0 C2.31 0 4.62 0 7 0 C7 5.94 7 11.88 7 18 C6.34 18 5.68 18 5 18 C3.4943096 12.19233704 2.78175223 7.0018137 3 1 C2.01 0.67 1.02 0.34 0 0 Z " fill="#4C422D" transform="translate(300,247)"/>
<path d="M0 0 C0 0.66 0 1.32 0 2 C2.97 2.495 2.97 2.495 6 3 C6 3.66 6 4.32 6 5 C-0.875 4.125 -0.875 4.125 -2 3 C-3.4346959 2.90105545 -4.87440397 2.87029265 -6.3125 2.875 C-7.09238281 2.87242187 -7.87226563 2.86984375 -8.67578125 2.8671875 C-10.91251539 2.99500088 -12.85266979 3.38086131 -15 4 C-15.33 5.65 -15.66 7.3 -16 9 C-17.32 8.67 -18.64 8.34 -20 8 C-19.34 8 -18.68 8 -18 8 C-17.79375 7.236875 -17.5875 6.47375 -17.375 5.6875 C-13.86868497 -1.16575211 -6.7094639 -0.35801487 0 0 Z " fill="#353227" transform="translate(287,236)"/>
<path d="M0 0 C2.5625 2.0625 2.5625 2.0625 4 4 C3.01 3.835 2.02 3.67 1 3.5 C-6.70233248 2.44615974 -11.88766361 2.95185583 -19 6 C-18.5 4.1875 -18.5 4.1875 -17 2 C-11.24137144 -0.92982857 -6.29254728 -1.87911039 0 0 Z " fill="#232522" transform="translate(227,234)"/>
<path d="M0 0 C5.56862862 0.02685834 10.08052846 1.98272625 15.0625 4.3125 C11.92900268 5.35699911 11.07281744 5.24673645 8.0625 4.3125 C8.0625 3.6525 8.0625 2.9925 8.0625 2.3125 C1.13805158 2.59628887 -3.96208563 3.79755037 -9.9375 7.3125 C-10.9275 7.8075 -10.9275 7.8075 -11.9375 8.3125 C-11.25 5.9375 -11.25 5.9375 -9.9375 3.3125 C-7.375 2.0625 -7.375 2.0625 -4.9375 1.3125 C-3.9375 0.3125 -3.9375 0.3125 0 0 Z " fill="#1F2221" transform="translate(278.9375,233.6875)"/>
<path d="M0 0 C0.33 0.99 0.66 1.98 1 3 C-4.61 3 -10.22 3 -16 3 C-16 5.31 -16 7.62 -16 10 C-16.33 10 -16.66 10 -17 10 C-17.33 7.69 -17.66 5.38 -18 3 C-11.92122066 -0.24201565 -6.81598387 -0.33278764 0 0 Z " fill="#463F2F" transform="translate(316,237)"/>
<path d="M0 0 C1.91635217 -0.05423638 3.83314925 -0.09289963 5.75 -0.125 C7.35101563 -0.15980469 7.35101563 -0.15980469 8.984375 -0.1953125 C11.92470106 -0.00487687 13.52361878 0.47329896 16 2 C16 2.66 16 3.32 16 4 C9.73 3.67 3.46 3.34 -3 3 C-2.01 2.67 -1.02 2.34 0 2 C0 1.34 0 0.68 0 0 Z " fill="#564D3B" transform="translate(243,238)"/>
<path d="M0 0 C1 2 2 4 3 6 C5.54941373 6.31241371 8.00361513 6.51303421 10.5625 6.625 C11.27341797 6.66367187 11.98433594 6.70234375 12.71679688 6.7421875 C14.47742425 6.83671783 16.23867728 6.91945817 18 7 C18 7.66 18 8.32 18 9 C14.05522048 10.97238976 8.99884363 10.62509292 4.8515625 9.328125 C3.20528956 8.61585997 1.59752245 7.81575615 0 7 C0 4.69 0 2.38 0 0 Z " fill="#363226" transform="translate(237,262)"/>
<path d="M0 0 C7.92 0.33 15.84 0.66 24 1 C23.67 1.66 23.34 2.32 23 3 C15.42263514 4.39820423 8.33554812 4.32292357 1 2 C0.67 1.34 0.34 0.68 0 0 Z " fill="#222421" transform="translate(150,269)"/>
<path d="M0 0 C2.64 0 5.28 0 8 0 C8.66 1.98 9.32 3.96 10 6 C6.37 6 2.74 6 -1 6 C-0.67 4.02 -0.34 2.04 0 0 Z " fill="#715F41" transform="translate(158,261)"/>
<path d="M0 0 C0 2.80384945 -0.38562851 4.96975945 -1 7.6875 C-2.65992577 15.96307196 -2.42092084 20.72687216 2 28 C1.67 28.99 1.34 29.98 1 31 C-4.31761613 24.5428947 -4.64593276 19.15626954 -4 11 C-3.95488281 10.19433594 -3.90976563 9.38867188 -3.86328125 8.55859375 C-3.61079005 5.51186658 -3.34522449 3.44188735 -1.4375 1 C-0.963125 0.67 -0.48875 0.34 0 0 Z " fill="#284C6F" transform="translate(248,165)"/>
<path d="M0 0 C1.99954746 -0.04254356 4.00041636 -0.04080783 6 0 C7 1 7 1 7.125 3.5 C7 6 7 6 6 7 C4.00041636 7.04080783 1.99954746 7.04254356 0 7 C0 4.69 0 2.38 0 0 Z " fill="#A98B58" transform="translate(189,246)"/>
<path d="M0 0 C1.32 0.33 2.64 0.66 4 1 C4 1.66 4 2.32 4 3 C4.66 3 5.32 3 6 3 C8.33760277 7.67520554 7.41227209 14.22712019 6 19.125 C5.67 20.07375 5.34 21.0225 5 22 C4.34 22 3.68 22 3 22 C3.15855469 21.46117187 3.31710937 20.92234375 3.48046875 20.3671875 C4.61705439 15.18845892 5.20007056 8.84034168 3.10546875 3.8828125 C1.93704992 2.08015948 1.93704992 2.08015948 0 0 Z " fill="#89806E" transform="translate(288,242)"/>
<path d="M0 0 C2.44066886 0.50541284 4.63887099 1.17873774 7 2 C7 2.33 7 2.66 7 3 C0.07 3 -6.86 3 -14 3 C-8.97598742 -0.76800943 -6.04940202 -0.56510494 0 0 Z " fill="#605643" transform="translate(224,238)"/>
<path d="M0 0 C-0.33 0.66 -0.66 1.32 -1 2 C-1.51046875 1.67257813 -2.0209375 1.34515625 -2.546875 1.0078125 C-5.86772037 -0.35648384 -8.67372568 -0.1912273 -12.25 -0.125 C-13.51328125 -0.10695312 -14.7765625 -0.08890625 -16.078125 -0.0703125 C-17.04234375 -0.04710937 -18.0065625 -0.02390625 -19 0 C-19 0.66 -19 1.32 -19 2 C-20.32 2.33 -21.64 2.66 -23 3 C-22.875 1.125 -22.875 1.125 -22 -1 C-14.29952595 -4.66689241 -7.55109152 -2.87660629 0 0 Z " fill="#212422" transform="translate(260,237)"/>
<path d="M0 0 C0.763125 0.66 1.52625 1.32 2.3125 2 C-0.6875 3 -0.6875 3 -3.6875 2 C-3.6875 1.34 -3.6875 0.68 -3.6875 0 C-5.93861973 0.28289472 -8.18837686 0.57664693 -10.4375 0.875 C-11.69046875 1.03742188 -12.9434375 1.19984375 -14.234375 1.3671875 C-17.17366408 1.9058355 -19.15857147 2.48008841 -21.6875 4 C-19.22250624 -0.80673783 -19.22250624 -0.80673783 -16.9140625 -1.640625 C-11.22425163 -2.55898044 -4.97238321 -3.35843544 0 0 Z " fill="#212422" transform="translate(200.6875,236)"/>
<path d="M0 0 C4.17660573 -0.26518132 7.04340734 -0.31886422 11 1 C13.04108797 4.00791911 13.19878036 6.42195344 13 10 C12.34 9.01 11.68 8.02 11 7 C9.21741411 4.74634036 8.37537256 4.07743906 5.51953125 3.48828125 C4.17955078 3.40126953 4.17955078 3.40126953 2.8125 3.3125 C1.91144531 3.24675781 1.01039063 3.18101562 0.08203125 3.11328125 C-0.60503906 3.07589844 -1.29210937 3.03851563 -2 3 C-1.34 2.01 -0.68 1.02 0 0 Z " fill="#2F2E25" transform="translate(160,237)"/>
<path d="M0 0 C4.31268363 0.03450147 7.80549579 0.80213687 11.875 2.1875 C11.875 2.5175 11.875 2.8475 11.875 3.1875 C3.955 3.1875 -3.965 3.1875 -12.125 3.1875 C-12.125 2.8575 -12.125 2.5275 -12.125 2.1875 C-10.990625 2.043125 -9.85625 1.89875 -8.6875 1.75 C-5.16342768 1.19356753 -3.58381971 0.03037135 0 0 Z " fill="#453E2F" transform="translate(162.125,265.8125)"/>
<path d="M0 0 C3 3 3 3 3.29296875 6.57421875 C3.27309338 7.94561913 3.23741111 9.31686405 3.1875 10.6875 C3.17396484 11.38939453 3.16042969 12.09128906 3.14648438 12.81445312 C3.11120182 14.54329829 3.05739583 16.27174765 3 18 C2.67 18 2.34 18 2 18 C2 16.02 2 14.04 2 12 C0.68 11.34 -0.64 10.68 -2 10 C-1.34 6.7 -0.68 3.4 0 0 Z " fill="#6D5E42" transform="translate(259,244)"/>
<path d="M0 0 C2 2 2 2 2.25 4.8125 C1.99915441 8.01078124 1.27034612 10.08567656 0 13 C-0.165 13.825 -0.33 14.65 -0.5 15.5 C-1.03457234 18.17286168 -1.92838416 20.49956304 -3 23 C-4.34434628 20.31130743 -3.76636252 18.93179293 -3.1875 16 C-2.99800781 15.02417969 -2.80851562 14.04835937 -2.61328125 13.04296875 C-2.41089844 12.03878906 -2.20851563 11.03460938 -2 10 C-1.80792969 9.02675781 -1.61585938 8.05351562 -1.41796875 7.05078125 C-0.9516727 4.69917313 -0.4789823 2.34905149 0 0 Z " fill="#222422" transform="translate(323,241)"/>
<path d="M0 0 C0 0.33 0 0.66 0 1 C-1.4540625 1.3403125 -1.4540625 1.3403125 -2.9375 1.6875 C-7.69229318 3.02234973 -11.77811307 5.49175879 -16 8 C-15.01530162 4.68783273 -14.37853825 3.26497677 -11.5 1.25 C-7.03645302 -0.98177349 -5.02110401 -0.83685067 0 0 Z " fill="#1F2221" transform="translate(166,236)"/>
<path d="M0 0 C0.33 0.66 0.66 1.32 1 2 C0.67 2.66 0.34 3.32 0 4 C0.66 4.33 1.32 4.66 2 5 C1.505 5.391875 1.01 5.78375 0.5 6.1875 C-1.45593143 8.55091715 -1.24207973 10.01435003 -1 13 C-3.31 13.33 -5.62 13.66 -8 14 C-6.6744419 10.37723685 -5.05653045 7.36494652 -2.875 4.1875 C-2.33617187 3.39730469 -1.79734375 2.60710937 -1.2421875 1.79296875 C-0.83226562 1.20128906 -0.42234375 0.60960938 0 0 Z " fill="#2E445B" transform="translate(257,113)"/>
<path d="M0 0 C2.31 0 4.62 0 7 0 C7.042721 1.66611905 7.04063832 3.33382885 7 5 C6 6 6 6 2.9375 6.0625 C1.4834375 6.0315625 1.4834375 6.0315625 0 6 C0 4.02 0 2.04 0 0 Z " fill="#A48655" transform="translate(247,257)"/>
<path d="M0 0 C0.99 0.33 1.98 0.66 3 1 C2.67 1.66 2.34 2.32 2 3 C1.01 3 0.02 3 -1 3 C-1.33 5.31 -1.66 7.62 -2 10 C-2.66 10 -3.32 10 -4 10 C-4.66 14.29 -5.32 18.58 -6 23 C-6.33 23 -6.66 23 -7 23 C-7.31516432 17.01187798 -6.55935967 13.52821688 -4 8 C-3.835 6.906875 -3.67 5.81375 -3.5 4.6875 C-3.335 3.800625 -3.17 2.91375 -3 2 C-2.01 1.34 -1.02 0.68 0 0 Z " fill="#323026" transform="translate(155,240)"/>
<path d="M0 0 C2.9375 0.375 2.9375 0.375 6 1 C6.33 1.66 6.66 2.32 7 3 C0.8323971 4.09857724 -5.18415123 4.11539104 -11.4375 4.0625 C-12.45521484 4.05798828 -13.47292969 4.05347656 -14.52148438 4.04882812 C-17.01438509 4.03712437 -19.50716074 4.02072848 -22 4 C-22 3.67 -22 3.34 -22 3 C-11.605 2.505 -11.605 2.505 -1 2 C-0.67 1.34 -0.34 0.68 0 0 Z " fill="#312E24" transform="translate(175,266)"/>
<path d="M0 0 C1.32 0 2.64 0 4 0 C5.06775224 1.96466413 6.06553465 3.96855359 7 6 C6.67 6.66 6.34 7.32 6 8 C4.35 7.67 2.7 7.34 1 7 C0.67 7.66 0.34 8.32 0 9 C0 6.03 0 3.06 0 0 Z " fill="#796747" transform="translate(189,259)"/>
<path d="M0 0 C1.98 0 3.96 0 6 0 C5.72285156 0.58007812 5.44570313 1.16015625 5.16015625 1.7578125 C3.11033734 6.17841841 1.5030622 10.09514353 1 15 C0.67 15 0.34 15 0 15 C0 10.05 0 5.1 0 0 Z " fill="#5B4D31" transform="translate(315,247)"/>
<path d="M0 0 C0.33 0.66 0.66 1.32 1 2 C0.67 2.66 0.34 3.32 0 4 C0.66 4 1.32 4 2 4 C2 4.66 2 5.32 2 6 C2.99 6.33 3.98 6.66 5 7 C2.50907189 8.24546405 1.58919267 7.7767578 -1 7 C-1 7.66 -1 8.32 -1 9 C-1.66 9 -2.32 9 -3 9 C-3.33 9.99 -3.66 10.98 -4 12 C-4.66 11.67 -5.32 11.34 -6 11 C-4.54955729 6.89041233 -2.48889248 3.56741255 0 0 Z " fill="#33495F" transform="translate(244,103)"/>
<path d="M0 0 C0 3 0 3 0 3 Z M-12 4 C-8.7 4 -5.4 4 -2 4 C-3.32 5.65 -4.64 7.3 -6 9 C-7.875 8.75 -7.875 8.75 -10 8 C-10.66 6.68 -11.32 5.36 -12 4 Z " fill="#212321" transform="translate(228,264)"/>
<path d="M0 0 C2.56616632 3.84924948 2.55097676 6.4349304 3 11 C1.35 11 -0.3 11 -2 11 C-1.85957123 9.35369672 -1.71250671 7.70795821 -1.5625 6.0625 C-1.48128906 5.14597656 -1.40007812 4.22945312 -1.31640625 3.28515625 C-1 1 -1 1 0 0 Z " fill="#C6AE87" transform="translate(162,246)"/>
<path d="M0 0 C3.9375 0.5 3.9375 0.5 5.9375 2.5 C6.2675 3.16 6.5975 3.82 6.9375 4.5 C4.48998565 4.56798651 2.36311712 4.62356626 0 3.9375 C-2.84970799 3.33301649 -5.23680556 3.92201705 -8.0625 4.5 C-5.66426702 1.30235603 -3.92485591 0.17347429 0 0 Z " fill="#2B2A23" transform="translate(267.0625,265.5)"/>
<path d="M0 0 C2.43757413 -0.02698422 4.87484915 -0.04683099 7.3125 -0.0625 C8.00279297 -0.07087891 8.69308594 -0.07925781 9.40429688 -0.08789062 C12.5483025 -0.10307906 14.99420019 -0.00193327 18 1 C18 1.99 18 2.98 18 4 C16.35 4 14.7 4 13 4 C12.67 3.01 12.34 2.02 12 1 C5.565 1.495 5.565 1.495 -1 2 C-0.67 1.34 -0.34 0.68 0 0 Z " fill="#302E25" transform="translate(304,236)"/>
<path d="M0 0 C1.98 0 3.96 0 6 0 C6 4.62 6 9.24 6 14 C5.67 14 5.34 14 5 14 C5 12.02 5 10.04 5 8 C4.34 8 3.68 8 3 8 C3 5.69 3 3.38 3 1 C2.01 0.67 1.02 0.34 0 0 Z " fill="#5C4D31" transform="translate(210,247)"/>
<path d="M0 0 C1.65 0 3.3 0 5 0 C5.33 1.65 5.66 3.3 6 5 C4.02 5.33 2.04 5.66 0 6 C0 4.02 0 2.04 0 0 Z " fill="#AE8F5C" transform="translate(247,246)"/>
<path d="M0 0 C0.33 0.66 0.66 1.32 1 2 C1.99 2 2.98 2 4 2 C3.67 2.66 3.34 3.32 3 4 C2.34 4 1.68 4 1 4 C0.67 6.31 0.34 8.62 0 11 C-0.66 11 -1.32 11 -2 11 C-2 10.34 -2 9.68 -2 9 C-2.99 9 -3.98 9 -5 9 C-3.7508258 5.54074837 -2.32472205 2.85306797 0 0 Z " fill="#273F56" transform="translate(269,127)"/>
<path d="M0 0 C3.85645121 -0.22036864 6.49223216 0.39644899 10 2 C10 2.33 10 2.66 10 3 C4.06 3 -1.88 3 -8 3 C-8 2.67 -8 2.34 -8 2 C-5.36 2 -2.72 2 0 2 C0 1.34 0 0.68 0 0 Z " fill="#463E2D" transform="translate(190,266)"/>
<path d="M0 0 C0.66 0.33 1.32 0.66 2 1 C-1.96 4.96 -5.92 8.92 -10 13 C-10.66 12.67 -11.32 12.34 -12 12 C-8.27653164 7.57905197 -4.70478962 3.42166518 0 0 Z " fill="#0D253D" transform="translate(235,199)"/>
<path d="M0 0 C-0.54855348 4.571279 -1.41744803 8.67435795 -3 13 C-3.33 13 -3.66 13 -4 13 C-4.47081122 4.83927218 -4.47081122 4.83927218 -2.5625 1.4375 C-1 0 -1 0 0 0 Z " fill="#665C47" transform="translate(154,253)"/>
<path d="M0 0 C0.99 0 1.98 0 3 0 C3 3.63 3 7.26 3 11 C2.67 10.01 2.34 9.02 2 8 C1.34 8 0.68 8 0 8 C0 5.36 0 2.72 0 0 Z " fill="#655333" transform="translate(304,247)"/>
<path d="M0 0 C0 0.66 0 1.32 0 2 C-3.19026533 4.32019297 -6.41726669 6.34643078 -10 8 C-8.92598892 5.08482708 -8.22189824 3.22189824 -6 1 C-3.90200436 0.34437636 -2.19959601 0 0 0 Z " fill="#213448" transform="translate(285,111)"/>
<path d="M0 0 C1.15957207 3.47871621 0.77456651 4.34219645 -0.4375 7.6875 C-0.86869141 8.89986328 -0.86869141 8.89986328 -1.30859375 10.13671875 C-1.53675781 10.75160156 -1.76492187 11.36648437 -2 12 C-4.56687367 8.1496895 -3.83288724 6.41430237 -3 2 C-2.01 2 -1.02 2 0 2 C0 1.34 0 0.68 0 0 Z " fill="#605540" transform="translate(157,241)"/>
<path d="M0 0 C2.64 0 5.28 0 8 0 C8.66 1.98 9.32 3.96 10 6 C9.649375 5.505 9.29875 5.01 8.9375 4.5 C6.05625711 2.26936034 3.52990974 2.80019379 0 3 C0 2.01 0 1.02 0 0 Z " fill="#A7987C" transform="translate(158,261)"/>
<path d="M0 0 C0.33 0 0.66 0 1 0 C1.08090971 1.62418745 1.13914995 3.24951745 1.1875 4.875 C1.22230469 5.77992188 1.25710938 6.68484375 1.29296875 7.6171875 C1.19628906 8.40351563 1.09960938 9.18984375 1 10 C0.01 10.66 -0.98 11.32 -2 12 C-1.85904936 10.3745692 -1.71207913 8.74965949 -1.5625 7.125 C-1.48128906 6.22007812 -1.40007812 5.31515625 -1.31640625 4.3828125 C-1 2 -1 2 0 0 Z " fill="#403A2A" transform="translate(317,254)"/>
<path d="M0 0 C0.66 0 1.32 0 2 0 C1.67 2.64 1.34 5.28 1 8 C0.01 7.67 -0.98 7.34 -2 7 C-1.125 1.125 -1.125 1.125 0 0 Z " fill="#807155" transform="translate(201,254)"/>
<path d="M0 0 C0.33 1.32 0.66 2.64 1 4 C1.66 4 2.32 4 3 4 C3 4.99 3 5.98 3 7 C5.31 7 7.62 7 10 7 C10 7.33 10 7.66 10 8 C8.52093108 8.02689216 7.04172517 8.04634621 5.5625 8.0625 C4.32693359 8.07990234 4.32693359 8.07990234 3.06640625 8.09765625 C1 8 1 8 0 7 C-0.04092937 4.66702567 -0.04241723 2.33294775 0 0 Z " fill="#323028" transform="translate(304,261)"/>
<path d="M0 0 C0.33 0.99 0.66 1.98 1 3 C-0.375 4.5 -0.375 4.5 -2 6 C-2.66 6 -3.32 6 -4 6 C-4 6.99 -4 7.98 -4 9 C-4.66 9 -5.32 9 -6 9 C-4.68775452 5.06326356 -3.08089673 2.77280706 0 0 Z " fill="#233649" transform="translate(223,105)"/>
<path d="M0 0 C4.82142857 5.78571429 4.82142857 5.78571429 6 9 C5.67 9.99 5.34 10.98 5 12 C4.15556432 10.75747321 3.3248542 9.5056114 2.5 8.25 C1.80390625 7.20585937 1.80390625 7.20585937 1.09375 6.140625 C0 4 0 4 0 0 Z " fill="#3873AF" transform="translate(244,184)"/>
<path d="M0 0 C0.33 0.99 0.66 1.98 1 3 C-3.625 7 -3.625 7 -7 7 C-7 6.34 -7 5.68 -7 5 C-6.01 5 -5.02 5 -4 5 C-4 4.34 -4 3.68 -4 3 C-2.68 2.67 -1.36 2.34 0 2 C0 1.34 0 0.68 0 0 Z " fill="#312E25" transform="translate(295,263)"/>
<path d="M0 0 C0.66 0 1.32 0 2 0 C2.66 1.65 3.32 3.3 4 5 C1.69 5.33 -0.62 5.66 -3 6 C-1.125 1.125 -1.125 1.125 0 0 Z " fill="#1C2F42" transform="translate(252,121)"/>
<path d="M0 0 C0.33 0 0.66 0 1 0 C1 3.96 1 7.92 1 12 C0.01 11.34 -0.98 10.68 -2 10 C-1.34 6.7 -0.68 3.4 0 0 Z " fill="#A3967E" transform="translate(259,244)"/>
<path d="M0 0 C1.65 0 3.3 0 5 0 C5 1.32 5 2.64 5 4 C3.35 4 1.7 4 0 4 C0 2.68 0 1.36 0 0 Z " fill="#6E8FB0" transform="translate(278,103)"/>
<path d="M0 0 C2.64 0 5.28 0 8 0 C7.01 1.485 7.01 1.485 6 3 C3.5625 2.625 3.5625 2.625 1 2 C0.67 1.34 0.34 0.68 0 0 Z " fill="#302E27" transform="translate(216,268)"/>
<path d="M0 0 C1.32 0 2.64 0 4 0 C4.33 1.32 4.66 2.64 5 4 C3.68 3.67 2.36 3.34 1 3 C0.67 3.99 0.34 4.98 0 6 C0 4.02 0 2.04 0 0 Z " fill="#A48B62" transform="translate(189,259)"/>
<path d="M0 0 C0.33 0 0.66 0 1 0 C1 2.31 1 4.62 1 7 C1.66 7 2.32 7 3 7 C2.67 8.32 2.34 9.64 2 11 C1.34 10.67 0.68 10.34 0 10 C0 6.7 0 3.4 0 0 Z " fill="#453D2B" transform="translate(212,248)"/>
</svg>
